{"glyphs":{":":{"x_min":0,"x_max":333,"ha":333,"o":"m 163 -14 q 128 -14 105 9 q 82 33 82 67 q 82 101 105 125 q 128 148 163 148 q 196 148 220 125 q 244 101 244 67 q 244 33 220 10 q 197 -14 163 -14 z m 163 307 q 128 307 105 330 q 82 354 82 388 q 82 422 105 445 q 127 469 163 469 q 197 469 220 445 q 244 421 244 388 q 244 354 220 330 q 197 307 163 307 z"},"$":{"x_min":0,"x_max":500,"ha":500,"o":"m 228 -10 q 175 -9 119 2 q 62 13 36 25 l 36 181 l 81 181 l 99 90 q 113 70 155 55 q 196 39 228 38 l 228 276 q 146 309 113 335 q 80 361 62 399 q 43 437 43 495 q 43 565 94 610 q 144 654 228 661 l 228 724 l 277 724 l 277 662 q 351 659 427 641 l 427 505 l 382 505 l 367 575 q 353 589 328 600 q 304 611 277 613 l 277 411 q 338 386 363 373 q 388 359 408 343 q 427 327 441 305 q 456 284 464 255 q 472 226 472 189 q 472 104 419 51 q 367 -1 277 -8 l 277 -76 l 228 -76 z m 367 161 q 367 185 358 202 q 350 219 333 231 q 316 244 277 258 l 277 38 q 321 45 344 76 q 367 107 367 161 z m 148 521 q 148 499 155 483 q 163 467 177 455 q 192 444 228 429 l 228 612 q 189 606 168 582 q 148 558 148 521 z"},"?":{"x_min":0,"x_max":500,"ha":500,"o":"m 217 -14 q 183 -14 160 9 q 137 33 137 67 q 137 101 160 125 q 183 148 217 148 q 251 148 275 125 q 298 101 298 67 q 298 33 275 10 q 251 -14 217 -14 z m 240 190 l 189 190 l 162 343 l 208 355 q 259 369 279 400 q 299 432 299 485 q 299 552 276 582 q 252 612 198 612 q 157 612 125 592 l 104 497 l 61 497 l 61 641 q 142 662 219 662 q 440 662 440 489 q 440 418 403 369 q 365 320 295 301 l 253 289 z"},"<":{"x_min":0,"x_max":570,"ha":570,"o":"m 50 310 l 50 354 l 515 583 l 515 513 l 140 332 l 515 151 l 515 81 z"},"'":{"x_min":0,"x_max":278,"ha":278,"o":"m 76 655 l 202 655 l 164 420 l 113 420 z"},"=":{"x_min":0,"x_max":570,"ha":570,"o":"m 515 267 l 515 197 l 50 197 l 50 267 z m 515 467 l 515 397 l 50 397 l 50 467 z"},"a":{"x_min":0,"x_max":500,"ha":500,"o":"m 267 469 q 439 469 439 342 l 439 44 l 485 32 l 485 0 l 316 0 l 305 35 q 267 9 236 0 q 206 -10 174 -10 q 32 -10 32 127 q 32 179 53 210 q 74 241 114 256 q 153 271 238 272 l 298 274 l 298 341 q 298 424 230 424 q 189 424 138 398 l 120 341 l 87 341 l 87 452 q 161 463 196 466 q 230 469 267 469 z m 298 230 l 257 229 q 209 227 191 204 q 173 181 173 130 q 173 88 188 69 q 202 49 226 49 q 259 49 298 66 z"},"L":{"x_min":0,"x_max":667,"ha":667,"o":"m 356 619 l 255 606 l 255 52 l 388 52 q 492 52 541 62 l 581 198 l 625 198 l 606 0 l 17 0 l 17 36 l 101 49 l 101 606 l 18 619 l 18 655 l 356 655 z"},"3":{"x_min":0,"x_max":500,"ha":500,"o":"m 466 178 q 466 89 402 40 q 338 -10 224 -10 q 133 -10 43 10 l 38 168 l 83 168 l 108 63 q 150 40 197 40 q 256 40 289 77 q 322 115 322 183 q 322 242 296 274 q 269 305 209 309 l 153 312 l 153 372 l 208 375 q 251 378 272 407 q 292 437 292 495 q 292 550 268 581 q 243 612 198 612 q 171 612 155 604 q 138 596 123 587 l 102 492 l 59 492 l 59 641 q 109 654 145 658 q 181 662 216 662 q 437 662 437 501 q 437 435 401 394 q 366 353 301 343 q 466 323 466 178 z"},";":{"x_min":0,"x_max":333,"ha":333,"o":"m 164 307 q 129 307 106 330 q 83 354 83 388 q 83 422 106 445 q 128 469 164 469 q 198 469 221 445 q 245 421 245 388 q 245 354 221 330 q 198 307 164 307 z m 251 52 q 251 -24 200 -77 q 149 -129 52 -155 l 52 -110 q 83 -101 105 -85 q 127 -70 139 -52 q 151 -33 151 -17 q 151 -6 143 2 q 135 10 113 21 q 76 41 76 82 q 76 111 97 129 q 118 147 155 147 q 195 147 223 120 q 251 94 251 52 z"},"J":{"x_min":0,"x_max":500,"ha":500,"o":"m 245 606 l 161 619 l 161 655 l 473 655 l 473 619 l 398 606 l 398 211 q 398 105 340 48 q 281 -10 173 -10 q 136 -10 101 -6 q 65 -1 44 5 l 44 153 l 88 153 l 103 66 q 112 55 129 48 q 146 42 167 42 q 200 42 222 65 q 245 89 245 135 z"},"V":{"x_min":0,"x_max":722,"ha":722,"o":"m 711 655 l 711 619 l 649 606 l 396 -15 l 331 -15 l 65 606 l 11 619 l 11 655 l 296 655 l 296 619 l 228 606 l 412 177 l 584 606 l 518 619 l 518 655 z"},"\"":{"x_min":0,"x_max":555,"ha":555,"o":"m 319 655 l 445 655 l 407 420 l 356 420 z m 111 655 l 237 655 l 199 420 l 148 420 z"},"7":{"x_min":0,"x_max":500,"ha":500,"o":"m 100 468 l 57 468 l 57 655 l 476 655 l 476 616 l 221 0 l 104 0 l 380 546 l 122 546 z"},"S":{"x_min":0,"x_max":556,"ha":556,"o":"m 53 201 l 96 201 l 118 96 q 139 72 180 56 q 222 40 266 40 q 406 40 406 155 q 406 191 380 216 q 353 241 296 260 q 212 288 175 305 q 138 323 113 346 q 87 370 72 403 q 57 437 57 485 q 57 572 116 617 q 175 662 288 662 q 370 662 470 641 l 470 485 l 426 485 l 404 575 q 354 611 288 611 q 228 611 196 589 q 164 567 164 521 q 164 488 190 465 q 217 442 274 424 q 386 387 428 360 q 470 333 492 293 q 514 253 514 199 q 514 -10 268 -10 q 212 -10 154 0 q 95 9 53 25 z"},"}":{"x_min":0,"x_max":394,"ha":394,"o":"m 39 -134 l 39 -91 l 69 -91 q 103 -91 117 -70 q 132 -48 132 -6 l 132 157 q 132 205 158 238 q 185 271 230 281 l 230 282 q 186 292 159 324 q 132 357 132 405 l 132 566 q 132 608 117 630 q 103 651 69 651 l 39 651 l 39 694 l 105 694 q 181 694 219 657 q 257 620 257 551 l 257 407 q 257 352 284 327 q 312 303 362 302 l 362 260 q 307 258 282 232 q 257 205 257 154 l 257 10 q 257 -59 217 -96 q 178 -134 105 -134 z"},"Z":{"x_min":0,"x_max":667,"ha":667,"o":"m 48 56 l 410 603 l 293 603 q 182 603 137 593 l 122 490 l 78 490 l 78 655 l 584 655 l 584 603 l 219 51 l 356 51 q 412 51 466 56 q 520 62 543 67 l 572 192 l 616 192 l 603 0 l 48 0 z"},"x":{"x_min":0,"x_max":500,"ha":500,"o":"m 15 427 l 15 459 l 260 459 l 260 427 l 209 414 l 276 311 l 364 415 l 318 427 l 318 459 l 475 459 l 475 427 l 434 417 l 305 266 l 451 42 l 495 32 l 495 0 l 250 0 l 250 32 l 301 43 l 221 167 l 114 42 l 160 32 l 160 0 l 4 0 l 4 32 l 45 40 l 191 211 l 60 415 z"},")":{"x_min":0,"x_max":333,"ha":333,"o":"m 32 -213 l 32 -157 q 77 -123 104 -69 q 131 -16 143 56 q 156 127 156 241 q 156 357 143 428 q 130 499 104 551 q 77 604 32 638 l 32 694 q 130 642 184 581 q 238 521 264 439 q 289 357 289 242 q 289 125 264 43 q 238 -40 184 -100 q 129 -161 32 -213 z"},"&":{"x_min":0,"x_max":833,"ha":833,"o":"m 509 524 q 509 487 495 459 q 480 432 452 411 q 425 391 367 368 l 553 200 q 578 264 582 350 l 527 363 l 527 394 l 760 394 l 760 363 l 707 350 l 693 306 q 664 205 620 140 l 728 43 l 784 31 l 784 0 l 597 0 l 539 54 q 453 -10 322 -10 q 188 -10 123 36 q 58 82 58 174 q 58 221 75 256 q 92 291 122 316 q 152 341 210 364 q 148 435 148 521 q 148 589 196 627 q 244 665 333 665 q 418 665 464 629 q 509 593 509 524 z m 322 42 q 424 42 488 101 l 255 317 q 222 295 207 261 q 192 228 192 179 q 192 109 227 76 q 262 42 322 42 z m 271 532 q 271 500 281 473 q 292 446 323 412 q 360 432 374 459 q 387 486 387 532 q 387 616 333 616 q 299 616 285 595 q 271 574 271 532 z"},"_":{"x_min":0,"x_max":500,"ha":500,"o":"m -8 -139 l -8 -69 l 508 -69 l 508 -139 z"},"v":{"x_min":0,"x_max":500,"ha":500,"o":"m 283 -10 l 224 -10 l 32 415 l 0 427 l 0 459 l 235 459 l 235 427 l 180 414 l 298 152 l 404 415 l 350 427 l 350 459 l 500 459 l 500 427 l 467 417 z"},"O":{"x_min":0,"x_max":778,"ha":778,"o":"m 211 328 q 211 172 254 106 q 296 39 389 39 q 481 39 524 106 q 567 173 567 328 q 567 483 524 548 q 481 613 389 613 q 296 613 254 548 q 211 483 211 328 z m 49 328 q 49 662 389 662 q 557 662 643 577 q 729 493 729 328 q 729 162 642 76 q 555 -10 389 -10 q 224 -10 136 76 q 49 161 49 328 z"},"(":{"x_min":0,"x_max":333,"ha":333,"o":"m 177 241 q 177 125 190 55 q 202 -16 229 -70 q 256 -124 301 -157 l 301 -213 q 204 -162 150 -101 q 95 -40 70 42 q 44 125 44 242 q 44 358 70 440 q 95 522 150 583 q 204 643 301 694 l 301 638 q 256 604 229 551 q 203 498 190 427 q 177 356 177 241 z"},"C":{"x_min":0,"x_max":722,"ha":722,"o":"m 398 -10 q 233 -10 141 78 q 49 165 49 320 q 49 488 137 575 q 225 662 397 662 q 511 662 633 629 l 636 472 l 592 472 l 579 567 q 514 611 429 611 q 315 611 263 540 q 211 470 211 321 q 211 184 266 112 q 320 41 425 41 q 480 41 521 55 q 562 70 586 90 l 602 197 l 646 197 l 643 31 q 599 14 529 2 q 458 -10 398 -10 z"},"W":{"x_min":0,"x_max":1000,"ha":1000,"o":"m 733 -15 l 673 -15 l 510 389 l 348 -15 l 288 -15 l 71 606 l 14 619 l 14 655 l 308 655 l 308 619 l 231 606 l 371 216 l 524 599 l 585 599 l 739 217 l 855 606 l 772 619 l 772 655 l 984 655 l 984 619 l 927 606 z"},"A":{"x_min":0,"x_max":722,"ha":722,"o":"m 209 36 l 209 0 l 10 0 l 10 36 l 59 49 l 292 660 l 433 660 l 665 49 l 715 36 l 715 0 l 423 0 l 423 36 l 499 49 l 437 218 l 185 218 l 125 49 z m 313 562 l 205 272 l 418 272 z"},"f":{"x_min":0,"x_max":333,"ha":333,"o":"m 77 408 l 7 408 l 7 442 l 77 461 l 77 510 q 77 604 125 654 q 172 704 262 704 q 310 704 343 695 l 343 585 l 312 585 l 297 639 q 286 650 267 650 q 218 650 218 526 l 218 459 l 311 459 l 311 408 l 218 408 l 218 44 l 292 32 l 292 0 l 27 0 l 27 32 l 77 44 z"},"Q":{"x_min":0,"x_max":778,"ha":778,"o":"m 49 328 q 49 662 389 662 q 557 662 643 577 q 729 493 729 328 q 729 85 546 16 l 571 -14 q 643 -104 694 -104 q 719 -104 734 -100 l 734 -142 q 724 -147 686 -155 q 649 -162 619 -162 q 583 -162 555 -156 q 528 -149 504 -135 q 480 -121 458 -98 q 435 -76 383 -10 q 221 -9 135 77 q 49 164 49 328 z m 211 328 q 211 172 254 106 q 296 39 389 39 q 481 39 524 106 q 567 173 567 328 q 567 483 524 548 q 481 613 389 613 q 296 613 254 548 q 211 483 211 328 z"},"w":{"x_min":0,"x_max":722,"ha":722,"o":"m 427 413 l 533 152 l 622 415 l 568 427 l 568 459 l 717 459 l 717 427 l 682 417 l 527 -10 l 468 -10 l 363 248 l 259 -10 l 200 -10 l 37 415 l 3 427 l 3 459 l 230 459 l 230 427 l 175 414 l 274 152 l 380 413 z"},"-":{"x_min":0,"x_max":333,"ha":333,"o":"m 37 193 l 37 278 l 296 278 l 296 193 z"},"E":{"x_min":0,"x_max":667,"ha":667,"o":"m 17 36 l 101 49 l 101 606 l 17 619 l 17 655 l 575 655 l 575 488 l 530 488 l 515 594 q 460 601 356 601 l 255 601 l 255 361 l 426 361 l 441 433 l 485 433 l 485 232 l 441 232 l 426 306 l 255 306 l 255 54 l 378 54 q 504 54 543 62 l 571 183 l 616 183 l 606 0 l 17 0 z"},"s":{"x_min":0,"x_max":389,"ha":389,"o":"m 365 146 q 365 69 318 30 q 271 -10 181 -10 q 144 -10 99 -2 q 54 6 31 15 l 31 140 l 63 140 l 82 76 q 99 59 127 47 q 155 36 184 36 q 226 36 247 54 q 268 72 268 101 q 268 127 248 144 q 228 160 160 181 q 89 203 60 241 q 30 279 30 334 q 30 397 77 434 q 123 471 196 471 q 247 471 332 457 l 332 339 l 299 339 l 284 393 q 270 407 244 416 q 218 425 195 425 q 160 425 143 411 q 126 396 126 372 q 126 346 147 329 q 168 312 234 293 q 305 271 335 235 q 365 199 365 146 z"},">":{"x_min":0,"x_max":570,"ha":570,"o":"m 51 81 l 51 151 l 426 332 l 51 513 l 51 583 l 516 354 l 516 310 z"},"l":{"x_min":0,"x_max":278,"ha":278,"o":"m 210 44 l 261 32 l 261 0 l 20 0 l 20 32 l 69 44 l 69 650 l 22 662 l 22 694 l 210 694 z"},"8":{"x_min":0,"x_max":500,"ha":500,"o":"m 452 494 q 452 440 425 402 q 399 364 351 347 q 407 326 437 282 q 467 238 467 177 q 467 84 413 37 q 360 -10 247 -10 q 33 -10 33 177 q 33 239 63 283 q 94 327 147 347 q 100 365 74 403 q 48 440 48 495 q 48 575 101 620 q 154 665 251 665 q 346 665 399 619 q 452 574 452 494 z m 328 177 q 328 252 309 286 q 289 320 247 320 q 207 320 189 287 q 172 254 172 177 q 172 101 190 70 q 208 40 247 40 q 289 40 309 72 q 328 104 328 177 z m 313 494 q 313 558 297 587 q 281 616 248 616 q 217 616 202 587 q 187 558 187 494 q 187 427 202 400 q 216 373 248 373 q 282 373 297 401 q 313 429 313 494 z"},"\\":{"x_min":0,"x_max":278,"ha":278,"o":"m -10 659 l 59 659 l 288 -10 l 219 -10 z"},"e":{"x_min":0,"x_max":444,"ha":444,"o":"m 241 470 q 334 470 376 420 q 418 371 418 266 l 418 226 l 177 226 l 177 218 q 177 145 189 114 q 201 83 227 67 q 253 51 299 51 q 342 51 408 65 l 408 28 q 381 12 338 1 q 295 -9 255 -9 q 142 -9 88 50 q 34 108 34 232 q 34 352 86 411 q 137 470 241 470 z m 236 421 q 207 421 192 389 q 178 357 178 277 l 284 277 q 284 342 280 369 q 275 396 265 408 q 254 421 236 421 z"},"b":{"x_min":0,"x_max":556,"ha":556,"o":"m 373 243 q 373 333 350 375 q 328 417 277 417 q 259 417 237 413 q 215 409 201 400 l 201 49 q 232 42 277 42 q 326 42 349 89 q 373 136 373 243 z m 60 651 l 13 662 l 13 694 l 201 694 l 201 525 q 201 480 196 433 q 215 449 252 460 q 289 471 324 471 q 424 471 470 417 q 516 362 516 242 q 516 124 457 57 q 398 -10 291 -10 q 212 -10 60 23 z"},"%":{"x_min":0,"x_max":1000,"ha":1000,"o":"m 312 -10 l 239 -10 l 702 665 l 776 665 z m 420 486 q 420 304 259 304 q 181 304 142 351 q 103 397 103 486 q 103 665 262 665 q 340 665 380 620 q 420 575 420 486 z m 315 486 q 315 557 302 588 q 288 619 259 619 q 232 619 220 589 q 208 560 208 486 q 208 410 220 380 q 232 350 259 350 q 288 350 301 381 q 315 413 315 486 z m 906 169 q 906 -13 746 -13 q 667 -13 628 33 q 588 80 588 169 q 588 256 628 302 q 667 348 749 348 q 826 348 866 303 q 906 258 906 169 z m 801 169 q 801 240 788 271 q 774 302 746 302 q 718 302 706 272 q 694 243 694 169 q 694 93 706 63 q 719 33 746 33 q 774 33 788 64 q 801 96 801 169 z"},"m":{"x_min":0,"x_max":833,"ha":833,"o":"m 212 419 l 245 436 q 313 471 368 471 q 450 471 477 412 q 577 471 646 471 q 770 471 770 336 l 770 44 l 816 32 l 816 0 l 588 0 l 588 32 l 629 44 l 629 317 q 629 358 613 381 q 597 404 565 404 q 529 404 487 383 q 492 363 492 336 l 492 44 l 538 32 l 538 0 l 310 0 l 310 32 l 351 44 l 351 317 q 351 358 335 381 q 319 404 287 404 q 254 404 213 385 l 213 44 l 255 32 l 255 0 l 27 0 l 27 32 l 72 44 l 72 415 l 27 427 l 27 459 l 205 459 z"},"#":{"x_min":0,"x_max":500,"ha":500,"o":"m 362 201 l 325 0 l 255 0 l 292 201 l 160 201 l 124 0 l 53 0 l 90 201 l 13 201 l 13 261 l 102 261 l 128 401 l 13 401 l 13 461 l 139 461 l 175 655 l 245 655 l 209 461 l 341 461 l 377 655 l 447 655 l 411 461 l 487 461 l 487 401 l 400 401 l 375 261 l 487 261 l 487 201 z m 198 401 l 172 261 l 304 261 l 330 401 z"},",":{"x_min":0,"x_max":250,"ha":250,"o":"m 212 52 q 212 -24 161 -77 q 110 -129 13 -155 l 13 -110 q 44 -101 66 -85 q 88 -70 100 -52 q 112 -34 112 -17 q 112 -6 104 1 q 97 9 75 21 q 38 41 38 82 q 38 114 60 130 q 82 147 116 147 q 157 147 185 120 q 212 94 212 52 z"},"n":{"x_min":0,"x_max":556,"ha":556,"o":"m 212 419 l 245 436 q 313 471 368 471 q 495 471 495 336 l 495 44 l 541 32 l 541 0 l 313 0 l 313 32 l 354 44 l 354 317 q 354 358 337 381 q 319 404 287 404 q 250 404 213 387 l 213 44 l 255 32 l 255 0 l 27 0 l 27 32 l 72 44 l 72 415 l 27 427 l 27 459 l 205 459 z"},"h":{"x_min":0,"x_max":556,"ha":556,"o":"m 213 495 q 213 463 210 419 l 244 436 q 313 471 368 471 q 495 471 495 336 l 495 44 l 541 32 l 541 0 l 313 0 l 313 32 l 354 44 l 354 317 q 354 358 337 381 q 319 404 287 404 q 250 404 213 387 l 213 44 l 255 32 l 255 0 l 27 0 l 27 32 l 72 44 l 72 650 l 25 662 l 25 694 l 213 694 z"},"z":{"x_min":0,"x_max":444,"ha":444,"o":"m 20 0 l 20 22 l 230 415 l 178 415 q 151 415 125 410 q 100 406 90 398 l 75 322 l 40 322 l 40 459 l 396 459 l 396 435 l 186 44 l 259 44 q 287 44 317 51 q 348 57 361 67 l 387 173 l 422 173 l 409 0 z"},"B":{"x_min":0,"x_max":667,"ha":667,"o":"m 429 493 q 429 550 404 576 q 379 601 323 601 l 255 601 l 255 373 l 327 373 q 379 373 404 400 q 429 428 429 493 z m 478 191 q 478 256 446 288 q 413 319 339 319 l 255 319 l 255 54 q 325 51 366 51 q 423 51 450 85 q 478 120 478 191 z m 17 0 l 17 36 l 101 49 l 101 606 l 17 619 l 17 655 l 334 655 q 465 655 527 620 q 589 585 589 507 q 589 448 552 406 q 516 363 454 350 q 545 341 592 301 q 639 260 639 191 q 639 96 569 46 q 499 -3 367 -3 l 145 0 z"},"K":{"x_min":0,"x_max":778,"ha":778,"o":"m 717 655 l 717 619 l 637 606 l 421 416 l 709 49 l 770 36 l 770 0 l 556 0 l 312 315 l 255 267 l 255 49 l 349 36 l 349 0 l 17 0 l 17 36 l 101 49 l 101 606 l 17 619 l 17 655 l 339 655 l 339 619 l 255 606 l 255 340 l 553 606 l 493 619 l 493 655 z"},"R":{"x_min":0,"x_max":722,"ha":722,"o":"m 255 277 l 255 49 l 339 36 l 339 0 l 23 0 l 23 36 l 101 49 l 101 606 l 17 619 l 17 655 l 330 655 q 475 655 546 610 q 617 566 617 472 q 617 331 485 291 l 660 49 l 731 36 l 731 0 l 519 0 l 336 277 z m 465 471 q 465 544 435 573 q 404 601 324 601 l 255 601 l 255 331 l 326 331 q 401 331 433 362 q 465 394 465 471 z"},"T":{"x_min":0,"x_max":667,"ha":667,"o":"m 151 0 l 151 36 l 255 49 l 255 603 l 230 603 q 119 603 73 593 l 60 472 l 16 472 l 16 655 l 652 655 l 652 472 l 607 472 l 594 593 q 553 602 434 602 l 410 602 l 410 49 l 514 36 l 514 0 z"},"P":{"x_min":0,"x_max":611,"ha":611,"o":"m 425 461 q 425 539 396 570 q 367 601 294 601 l 255 601 l 255 311 l 296 311 q 364 311 395 345 q 425 379 425 461 z m 255 257 l 255 49 l 364 36 l 364 0 l 23 0 l 23 36 l 101 49 l 101 606 l 17 619 l 17 655 l 306 655 q 445 655 514 608 q 583 562 583 462 q 583 257 343 257 z"},"|":{"x_min":0,"x_max":220,"ha":220,"o":"m 75 -216 l 75 694 l 145 694 l 145 -216 z"},"t":{"x_min":0,"x_max":333,"ha":333,"o":"m 214 -10 q 148 -10 112 20 q 76 50 76 106 l 76 408 l 16 408 l 16 440 l 87 459 l 144 563 l 217 563 l 217 459 l 314 459 l 314 408 l 217 408 l 217 115 q 217 83 230 67 q 244 51 265 51 q 291 51 329 59 l 329 17 q 314 7 279 -1 q 243 -10 214 -10 z"},"M":{"x_min":0,"x_max":944,"ha":944,"o":"m 431 0 l 404 0 l 162 553 l 162 49 l 250 36 l 250 0 l 17 0 l 17 36 l 101 49 l 101 606 l 17 619 l 17 655 l 274 655 l 461 224 l 652 655 l 915 655 l 915 619 l 831 606 l 831 49 l 915 36 l 915 0 l 589 0 l 589 36 l 677 49 l 677 553 z"},"g":{"x_min":0,"x_max":500,"ha":500,"o":"m 125 169 q 39 206 39 312 q 39 389 92 430 q 145 471 244 471 q 265 471 298 468 q 331 464 346 459 l 456 513 l 473 492 l 417 413 q 448 376 448 312 q 448 235 395 193 q 343 151 242 151 q 204 151 167 157 l 156 120 q 157 106 174 94 q 191 81 216 81 l 323 81 q 490 81 490 -48 q 490 -101 461 -139 q 432 -178 376 -199 q 319 -221 235 -221 q 136 -221 81 -192 q 26 -164 26 -114 q 26 -92 44 -71 q 62 -51 113 -21 q 84 -10 64 18 q 44 46 44 77 z m 383 -81 q 383 -35 321 -35 l 167 -35 q 124 -66 124 -105 q 124 -137 154 -152 q 184 -168 236 -168 q 307 -168 345 -145 q 383 -122 383 -81 z m 241 200 q 277 200 293 228 q 310 256 310 312 q 310 369 294 395 q 278 422 241 422 q 208 422 192 395 q 177 369 177 312 q 177 256 192 228 q 207 200 241 200 z"},"j":{"x_min":0,"x_max":333,"ha":333,"o":"m 270 619 q 270 588 248 566 q 227 544 195 544 q 164 544 142 566 q 120 587 120 619 q 120 650 142 672 q 164 694 195 694 q 226 694 248 672 q 270 650 270 619 z m 266 -19 q 266 -111 217 -162 q 167 -213 76 -213 q 32 -213 -8 -204 l -8 -94 l 23 -94 l 44 -150 q 56 -159 68 -159 q 94 -159 110 -127 q 125 -94 125 -35 l 125 410 l 44 427 l 44 459 l 266 459 z"},"i":{"x_min":0,"x_max":278,"ha":278,"o":"m 213 44 l 263 32 l 263 0 l 22 0 l 22 32 l 72 44 l 72 415 l 25 427 l 25 459 l 213 459 z m 67 619 q 67 651 89 672 q 111 694 142 694 q 173 694 195 672 q 217 650 217 619 q 217 588 195 566 q 174 544 142 544 q 111 544 89 566 q 67 587 67 619 z"},"y":{"x_min":0,"x_max":500,"ha":500,"o":"m 226 -14 l 42 415 l 10 427 l 10 459 l 245 459 l 245 427 l 190 414 l 298 160 l 394 415 l 340 427 l 340 459 l 490 459 l 490 427 l 457 417 l 276 -29 q 245 -108 221 -144 q 198 -180 169 -198 q 141 -216 104 -216 q 64 -216 23 -207 l 23 -88 l 53 -88 l 74 -150 q 88 -161 110 -161 q 128 -161 143 -152 q 157 -144 169 -127 q 182 -110 193 -86 q 204 -62 226 -14 z"},"@":{"x_min":0,"x_max":930,"ha":930,"o":"m 878 367 q 878 275 831 194 q 783 112 702 62 q 620 12 530 12 q 469 12 467 73 l 442 52 q 393 12 335 12 q 293 12 269 46 q 244 81 244 138 q 244 201 269 261 q 294 321 338 364 q 382 407 437 429 q 492 451 578 451 q 621 451 667 446 l 608 182 q 604 164 601 139 q 597 115 597 105 q 597 94 601 86 q 605 78 622 78 q 667 78 706 117 q 744 156 766 224 q 788 292 788 367 q 788 485 719 551 q 649 617 527 617 q 417 617 329 562 q 242 507 192 405 q 142 303 142 177 q 142 85 178 13 q 213 -59 280 -99 q 347 -139 437 -139 q 509 -139 572 -119 q 635 -100 701 -53 l 723 -84 q 653 -140 581 -165 q 508 -190 422 -190 q 311 -190 227 -144 q 143 -98 97 -14 q 52 69 52 177 q 52 316 115 429 q 178 542 287 604 q 396 666 529 666 q 695 666 787 588 q 878 509 878 367 z m 361 154 q 361 119 372 101 q 382 83 396 83 q 413 83 434 92 q 456 102 471 116 l 530 390 q 521 392 500 392 q 450 392 424 366 q 397 341 379 279 q 361 217 361 154 z"},".":{"x_min":0,"x_max":250,"ha":250,"o":"m 125 -14 q 91 -14 68 9 q 44 33 44 67 q 44 101 67 124 q 91 148 125 148 q 159 148 182 125 q 206 101 206 67 q 206 33 183 10 q 159 -14 125 -14 z"},"p":{"x_min":0,"x_max":556,"ha":556,"o":"m 200 436 q 252 471 327 471 q 422 471 469 415 q 516 359 516 238 q 516 118 461 54 q 407 -10 306 -10 q 254 -10 201 3 q 204 -29 204 -69 l 204 -169 l 271 -181 l 271 -213 l 13 -213 l 13 -181 l 63 -169 l 63 415 l 13 427 l 13 459 l 199 459 z m 373 234 q 373 417 288 417 q 242 417 204 398 l 204 52 q 244 42 287 42 q 373 42 373 234 z"},"X":{"x_min":0,"x_max":722,"ha":722,"o":"m 161 49 l 242 36 l 242 0 l 19 0 l 19 36 l 91 49 l 301 316 l 114 606 l 40 619 l 40 655 l 359 655 l 359 619 l 276 606 l 390 430 l 529 606 l 448 619 l 448 655 l 672 655 l 672 619 l 600 606 l 422 380 l 636 49 l 710 36 l 710 0 l 392 0 l 392 36 l 475 49 l 333 267 z"},"*":{"x_min":0,"x_max":500,"ha":500,"o":"m 271 437 l 307 283 l 193 283 l 228 439 l 87 324 l 42 428 l 191 471 l 42 515 l 87 619 l 228 505 l 193 660 l 307 660 l 271 505 l 412 616 l 458 514 l 306 471 l 458 429 l 412 326 z"},"Y":{"x_min":0,"x_max":722,"ha":722,"o":"m 445 258 l 445 49 l 549 36 l 549 0 l 187 0 l 187 36 l 291 49 l 291 255 l 91 606 l 18 619 l 18 655 l 354 655 l 354 619 l 267 606 l 416 332 l 561 606 l 480 619 l 480 655 l 703 655 l 703 619 l 634 606 z"},"c":{"x_min":0,"x_max":444,"ha":444,"o":"m 419 28 q 397 10 358 0 q 319 -9 278 -9 q 156 -9 95 50 q 34 109 34 230 q 34 306 62 360 q 89 414 141 443 q 192 471 260 471 q 328 471 409 454 l 409 318 l 374 318 l 353 399 q 336 411 320 416 q 304 421 278 421 q 249 421 226 398 q 202 375 189 333 q 176 292 176 233 q 176 135 207 93 q 237 51 304 51 q 371 51 419 65 z"},"!":{"x_min":0,"x_max":333,"ha":333,"o":"m 194 205 l 138 205 l 93 655 l 239 655 z m 166 -14 q 132 -14 109 9 q 85 33 85 67 q 85 101 108 124 q 132 148 166 148 q 200 148 223 125 q 247 101 247 67 q 247 33 224 10 q 200 -14 166 -14 z"},"/":{"x_min":0,"x_max":278,"ha":278,"o":"m 59 -10 l -10 -10 l 220 659 l 288 659 z"},"[":{"x_min":0,"x_max":333,"ha":333,"o":"m 74 -134 l 74 694 l 297 694 l 297 661 l 198 641 l 198 -81 l 297 -101 l 297 -134 z"},"6":{"x_min":0,"x_max":500,"ha":500,"o":"m 471 203 q 471 100 417 45 q 364 -10 266 -10 q 154 -10 94 76 q 34 161 34 323 q 34 429 66 505 q 97 582 154 622 q 210 662 284 662 q 360 662 431 641 l 431 492 l 389 492 l 368 587 q 334 612 294 612 q 245 612 215 550 q 184 487 179 375 q 232 398 284 398 q 374 398 422 348 q 471 297 471 203 z m 264 40 q 300 40 313 78 q 327 117 327 194 q 327 263 308 300 q 289 337 251 337 q 215 337 178 326 l 178 323 q 178 40 264 40 z"},"r":{"x_min":0,"x_max":444,"ha":444,"o":"m 225 364 q 278 422 320 448 q 361 474 396 474 l 422 474 l 422 306 l 395 306 l 366 368 q 335 368 296 354 q 257 341 228 323 l 228 44 l 301 32 l 301 0 l 27 0 l 27 32 l 86 44 l 86 415 l 27 427 l 27 459 l 220 459 z"},"2":{"x_min":0,"x_max":500,"ha":500,"o":"m 457 0 l 42 0 l 42 92 q 84 137 120 173 q 198 250 234 294 q 270 338 287 386 q 304 433 304 494 q 304 547 278 580 q 252 612 209 612 q 179 612 161 606 q 143 600 127 587 l 106 492 l 64 492 l 64 641 q 103 650 140 656 q 178 662 222 662 q 330 662 387 618 q 444 573 444 491 q 444 440 427 398 q 410 356 373 317 q 336 277 227 188 q 185 154 136 110 l 457 110 z"},"{":{"x_min":0,"x_max":394,"ha":394,"o":"m 289 -134 q 216 -134 177 -96 q 137 -59 137 10 l 137 154 q 137 206 112 232 q 87 258 32 260 l 32 302 q 82 303 110 327 q 137 352 137 407 l 137 551 q 137 620 175 657 q 213 694 289 694 l 355 694 l 355 651 l 325 651 q 291 651 277 630 q 262 608 262 566 l 262 405 q 262 359 235 325 q 208 292 164 282 l 164 281 q 209 271 236 238 q 262 205 262 157 l 262 -6 q 262 -48 277 -70 q 291 -91 325 -91 l 355 -91 l 355 -134 z"},"9":{"x_min":0,"x_max":500,"ha":500,"o":"m 27 455 q 27 555 84 608 q 142 662 243 662 q 358 662 411 582 q 464 501 464 329 q 464 219 433 143 q 402 67 344 29 q 286 -10 204 -10 q 123 -10 52 11 l 52 160 l 95 160 l 116 65 q 133 53 156 46 q 180 40 202 40 q 255 40 284 99 q 314 159 319 272 q 268 254 218 254 q 129 254 78 307 q 27 360 27 455 z m 171 453 q 171 313 247 313 q 284 313 320 322 l 320 329 q 320 470 303 542 q 287 613 244 613 q 171 613 171 453 z"}," ":{"x_min":0,"x_max":250,"ha":250,"o":""},"I":{"x_min":0,"x_max":389,"ha":389,"o":"m 271 49 l 355 36 l 355 0 l 34 0 l 34 36 l 118 49 l 118 606 l 34 619 l 34 655 l 355 655 l 355 619 l 271 606 z"},"H":{"x_min":0,"x_max":778,"ha":778,"o":"m 17 0 l 17 36 l 101 49 l 101 606 l 17 619 l 17 655 l 339 655 l 339 619 l 255 606 l 255 364 l 522 364 l 522 606 l 438 619 l 438 655 l 761 655 l 761 619 l 677 606 l 677 49 l 761 36 l 761 0 l 438 0 l 438 36 l 522 49 l 522 310 l 255 310 l 255 49 l 339 36 l 339 0 z"},"4":{"x_min":0,"x_max":500,"ha":500,"o":"m 416 129 l 416 0 l 285 0 l 285 129 l 14 129 l 14 209 l 309 658 l 416 658 l 416 229 l 481 229 l 481 129 z m 285 423 q 285 478 290 527 l 95 229 l 285 229 z"},"~":{"x_min":0,"x_max":520,"ha":520,"o":"m 372 235 q 344 235 314 249 q 284 264 248 294 q 206 329 186 341 q 166 353 149 353 q 115 353 99 326 q 83 299 77 235 l 8 235 q 15 308 31 345 q 47 382 76 402 q 104 423 149 423 q 177 423 206 410 q 235 396 276 363 q 314 329 335 317 q 356 305 372 305 q 404 305 420 333 q 436 361 443 423 l 514 423 q 504 349 487 312 q 471 275 443 255 q 415 235 372 235 z"},"D":{"x_min":0,"x_max":722,"ha":722,"o":"m 511 327 q 511 469 459 535 q 408 601 291 601 l 255 601 l 255 56 q 302 52 340 52 q 403 52 440 79 q 477 106 494 165 q 511 223 511 327 z m 329 655 q 505 655 589 575 q 673 495 673 331 q 673 163 593 80 q 512 -2 349 -2 l 130 0 l 18 0 l 18 36 l 102 49 l 102 606 l 18 619 l 18 655 z"},"^":{"x_min":0,"x_max":581,"ha":581,"o":"m 452 190 l 291 562 l 129 190 l 60 190 l 269 655 l 312 655 l 521 190 z"},"0":{"x_min":0,"x_max":500,"ha":500,"o":"m 462 330 q 462 -10 247 -10 q 144 -10 91 77 q 38 164 38 330 q 38 493 91 579 q 144 665 251 665 q 354 665 408 580 q 462 495 462 330 z m 319 330 q 319 482 302 549 q 285 616 248 616 q 212 616 197 551 q 181 487 181 330 q 181 171 197 105 q 212 39 248 39 q 284 39 302 107 q 319 174 319 330 z"},"F":{"x_min":0,"x_max":611,"ha":611,"o":"m 255 279 l 255 49 l 364 36 l 364 0 l 23 0 l 23 36 l 101 49 l 101 606 l 17 619 l 17 655 l 563 655 l 563 479 l 517 479 l 501 594 q 478 598 422 599 q 367 601 335 601 l 255 601 l 255 333 l 415 333 l 430 416 l 473 416 l 473 195 l 430 195 l 415 279 z"},"`":{"x_min":0,"x_max":333,"ha":333,"o":"m 221 546 l 43 677 l 43 695 l 182 695 l 263 562 l 263 546 z"},"k":{"x_min":0,"x_max":556,"ha":556,"o":"m 213 220 l 392 416 l 343 427 l 343 459 l 518 459 l 518 427 l 465 416 l 356 301 l 514 44 l 555 32 l 555 0 l 334 0 l 334 32 l 361 44 l 269 205 l 213 166 l 213 44 l 258 32 l 258 0 l 28 0 l 28 32 l 72 44 l 72 650 l 25 662 l 25 694 l 213 694 z"},"u":{"x_min":0,"x_max":556,"ha":556,"o":"m 344 40 l 311 23 q 243 -12 188 -12 q 61 -12 61 123 l 61 415 l 15 427 l 15 459 l 202 459 l 202 142 q 202 101 219 78 q 237 55 269 55 q 306 55 343 72 l 343 415 l 301 427 l 301 459 l 484 459 l 484 44 l 529 32 l 529 0 l 351 0 z"},"]":{"x_min":0,"x_max":333,"ha":333,"o":"m 36 -134 l 36 -101 l 135 -81 l 135 641 l 36 661 l 36 694 l 259 694 l 259 -134 z"},"U":{"x_min":0,"x_max":722,"ha":722,"o":"m 409 60 q 482 60 522 101 q 562 142 562 221 l 562 606 l 475 619 l 475 655 l 697 655 l 697 619 l 623 606 l 623 225 q 623 112 558 51 q 492 -9 371 -9 q 239 -9 169 52 q 99 113 99 229 l 99 606 l 25 619 l 25 655 l 337 655 l 337 619 l 253 606 l 253 222 q 253 144 293 102 q 333 60 409 60 z"},"o":{"x_min":0,"x_max":500,"ha":500,"o":"m 462 232 q 462 108 409 49 q 356 -10 247 -10 q 142 -10 90 50 q 38 110 38 232 q 38 354 91 412 q 143 471 251 471 q 360 471 411 410 q 462 350 462 232 z m 319 232 q 319 339 303 381 q 287 422 248 422 q 210 422 196 382 q 181 343 181 232 q 181 119 196 79 q 211 39 248 39 q 287 39 303 81 q 319 124 319 232 z"},"N":{"x_min":0,"x_max":722,"ha":722,"o":"m 564 606 l 476 619 l 476 655 l 709 655 l 709 619 l 625 606 l 625 0 l 568 0 l 164 526 l 164 49 l 252 36 l 252 0 l 19 0 l 19 36 l 103 49 l 103 606 l 19 619 l 19 655 l 243 655 l 564 236 z"},"+":{"x_min":0,"x_max":570,"ha":570,"o":"m 320 297 l 320 99 l 250 99 l 250 297 l 53 297 l 53 367 l 250 367 l 250 565 l 320 565 l 320 367 l 518 367 l 518 297 z"},"G":{"x_min":0,"x_max":778,"ha":778,"o":"m 687 34 q 626 14 546 2 q 466 -10 402 -10 q 295 -10 215 29 q 135 68 92 143 q 49 218 49 320 q 49 484 143 573 q 237 662 411 662 q 454 662 489 659 q 523 655 554 649 q 584 644 665 621 l 665 470 l 621 470 l 609 555 q 571 582 524 596 q 478 611 429 611 q 315 611 263 540 q 211 469 211 321 q 211 183 266 112 q 321 41 425 41 q 481 41 533 58 l 533 247 l 449 260 l 449 296 l 750 296 l 750 260 l 687 247 z"},"q":{"x_min":0,"x_max":556,"ha":556,"o":"m 184 219 q 184 131 207 88 q 229 44 282 44 q 300 44 321 50 q 342 55 356 63 l 356 413 q 323 421 282 421 q 232 421 208 372 q 184 322 184 219 z m 497 -169 l 547 -181 l 547 -213 l 289 -213 l 289 -181 l 356 -169 l 356 -64 q 356 -19 361 28 q 313 -10 241 -10 q 139 -10 90 51 q 41 111 41 231 q 41 349 96 410 q 151 471 258 471 q 293 471 395 460 l 453 481 l 497 481 z"},"d":{"x_min":0,"x_max":556,"ha":556,"o":"m 358 26 q 331 8 316 3 q 301 -3 283 -6 q 264 -10 242 -10 q 140 -10 90 49 q 41 107 41 228 q 41 347 94 409 q 147 471 249 471 q 302 471 356 458 q 354 474 354 534 l 354 650 l 307 662 l 307 694 l 495 694 l 495 44 l 545 32 l 545 0 l 368 0 z m 184 232 q 184 141 207 93 q 229 44 272 44 q 312 44 354 65 l 354 411 q 315 421 276 421 q 232 421 208 373 q 184 325 184 232 z"},"1":{"x_min":0,"x_max":500,"ha":500,"o":"m 334 54 l 448 42 l 448 0 l 80 0 l 80 42 l 193 54 l 193 547 l 81 510 l 81 552 l 265 660 l 334 660 z"},"5":{"x_min":0,"x_max":500,"ha":500,"o":"m 234 387 q 351 387 407 339 q 463 292 463 195 q 463 96 402 43 q 341 -10 227 -10 q 136 -10 46 10 l 40 168 l 85 168 l 110 63 q 129 53 157 46 q 185 40 208 40 q 320 40 320 190 q 320 268 291 303 q 263 338 200 338 q 166 338 137 325 l 122 319 l 73 319 l 73 655 l 415 655 l 415 546 l 127 546 l 127 374 q 187 387 234 387 z"}}}
